@startuml class_diagram
skinparam classAttributeIconSize 0
skinparam classFontSize 10
skinparam packageStyle rectangle
skinparam Linetype ortho
 
 
package "Application Layer"{
    class App <<src/main.py>>{
        +app : FastAPI
       
    }
 
}
package "Routes Layer" {
   class Router <<src/routers/order_agent_router.py>>{
       -agent_service: AgentService
       +chatbot_route(user_query): JSONResponse
   }
}
 
package "Service Layer" {
   class AgentService <<src/services/order_agent_service.py>>{
       +chatbot_service(user_query)
   }
   
}
 
package "Agents Layer"{
    class Agents <<src/agents/agents.py>>{
        -MCPtools: mcptools
        +get_bedrock_client()
        +get_llm()
        +invoke_llm(user_query)
 
    }
}
 

 
package "Repository layer"{
   
    class Error_repo <<src/repositories/error_repo.py>>{
        +insert_error_log(session: Session,file_name: str,function_name: str,error: str,err_code: Optional[str] = None,actor: str = "system", -> Dict[str, Any]:
    }
    class Database <<src/repositories/order_database.py>>{
        +SessionLocal(): Session
        +get_db(): Session
    }
}

package schema {
    class error_logs <<src/repositories/schema/schema.py>>{
        +error_log_id :int
        +file_name :str
        +function_name : str
        +error :str
        +error_code :str
        +created_at : datetime
        +created_by : str
        +updated_at :datetime
        +updated_by :Str       
    }

}

 
 
' MODELS
package "utils" {
 
   
   
   class Error <<src/utils/exception/Error.py>>{
       +code: str
       +message: str
       +error_code_id: Optional[str]
       --
       +to_dict(): dict
   }
   class CustomAppException <<src/utils/exception/custom_app_expection.py>>{
       +message: str
       +code: str
       +status_code: int
       +error_code_id: Optional[str]
       +errors: List[Error]
       +request_id: str
       --
       +to_api_response(): APIResponse
       +from_errors(): CustomAppException
   }
    class Error_log <<src/utils/error_log.py>>{
        +error_log(file_name,function_name,error):Dict
    }
    class ErrorCode <<src/models/error_codes.py>>{
       +DATABASE_ERROR: str
       +INTERNAL_SERVER_ERROR: str
       +VALIDATION_ERROR: str
   }
   class ErrorCodeStatus <<src/models/error_codes.py>>{
       +TRAINING_SQL_006: str
       +TRAINING_SQL_005: str
       +TRAINING_VAL_004: str
   }
   
   
 
}
 
 
 
 
package "models" {

    class APIResponse <<src/utils/exception/api_response_dto.py>>{
       +data: Optional[Any]
       +errors: List[Error]
       +code: int
       +message: str
       +request_id: str
       --
       +to_dict(): dict
   }
   class UserQuery <<src/models/user_query_model.py>>{
        +user_query:str
   }
  
   
}
package "settings" {
   class HttpStatusCode <<src/settings.py>>{
       +OK: int
       +CREATED: int
       +BAD_REQUEST: int
       +NOT_FOUND: int
       +INTERNAL_SERVER_ERROR: int
   }
   class Config <<src/settings.py>>{
        +get_config():
    }
}
' === Relationships ===
 
'Application -> Route
App -> Router : calls
' Route → Service
Router -> AgentService: calls
AgentService -> Agents: uses

Router -> UserQuery:uses
' Service -> Utils

AgentService-> APIResponse: uses


Error_repo -> schema :uses 

 
' Exception handling
Router ..> CustomAppException: raises
AgentService ..> CustomAppException:raises
 
CustomAppException --> ErrorCode : uses
CustomAppException --> ErrorCodeStatus : uses

APIResponse --> Error : uses
APIResponse --> settings : uses
models -> settings :uses


ErrorCode --> APIResponse: uses

Database --> Config :uses
Agents --> Config :uses
 
Error_log -> Error_repo :uses

Router  ..> Error_log : may raise 

AgentService ..> Error_log : may raise

Agents  ..> Error_log : may raise
Error_log <--> Database

@enduml
 